<?xml version="1.0" encoding="iso-8859-1"?>
<!-- Generator: Adobe Illustrator 15.1.0, SVG Export Plug-In . SVG Version: 6.00 Build 0)  -->
<!DOCTYPE svg PUBLIC "-//W3C//DTD SVG 1.1//EN" "http://www.w3.org/Graphics/SVG/1.1/DTD/svg11.dtd">
<svg version="1.1" id="&#x30EC;&#x30A4;&#x30E4;&#x30FC;_1"
	 xmlns="http://www.w3.org/2000/svg" xmlns:xlink="http://www.w3.org/1999/xlink" x="0px" y="0px" width="100px" height="100px"
	 viewBox="0 0 100 100" style="enable-background:new 0 0 100 100;" xml:space="preserve">
<g>
	<path style="fill:#E95674;" d="M48.381,5c0.89-1.389,2.347-1.389,3.237,0l14.53,22.673c0.89,1.389,2.923,2.873,4.518,3.298
		l26.435,7.038c1.594,0.425,2.029,1.804,0.965,3.065l-17.382,20.61c-1.064,1.262-1.848,3.641-1.742,5.287l1.768,27.561
		c0.105,1.646-1.057,2.481-2.584,1.855l-25.35-10.396c-1.527-0.626-4.025-0.626-5.552,0l-25.35,10.396
		c-1.527,0.626-2.689-0.209-2.584-1.855l1.767-27.561c0.105-1.646-0.678-4.026-1.742-5.287L1.934,41.074
		c-1.064-1.261-0.629-2.641,0.965-3.065l26.434-7.038c1.594-0.425,3.627-1.909,4.518-3.298L48.381,5z"/>
</g>
</svg>
